<svg width="285" height="175" viewBox="0 0 285 175" fill="none" xmlns="http://www.w3.org/2000/svg">
<path d="M18.6964 119.712L6.74445 86.0163H15.4804L23.8324 111.696L32.1844 86.0163H40.9204L28.9684 119.712H18.6964ZM54.4366 119.712V86.0163H62.6446V119.712H54.4366ZM79.4584 86.0163H87.6664V113.472H97.8904V119.712H79.4584V86.0163ZM150.187 86.0163V119.712H141.979V100.704L134.155 119.712H128.059L120.235 100.704V119.712H112.027V86.0163H121.435L131.131 109.248L140.779 86.0163H150.187ZM188.41 119.712L186.538 114.048H174.442L172.57 119.712H163.834L175.546 85.9203H185.53L197.194 119.712H188.41ZM176.506 107.808H184.474L180.49 95.8083L176.506 107.808ZM232.229 119.712L230.357 114.048H218.261L216.389 119.712H207.653L219.365 85.9203H229.349L241.013 119.712H232.229ZM220.325 107.808H228.293L224.309 95.8083L220.325 107.808ZM277.248 86.0163V92.2563L262.896 113.472H277.248V119.712H253.44V113.472L267.792 92.2563H253.44V86.0163H277.248Z" fill="#21242C"/>
<path d="M21.9464 152.535C23.3064 151.129 23.9864 149.293 23.9864 147.027C23.9864 144.76 23.3064 142.935 21.9464 141.553C20.6091 140.147 18.9884 139.445 17.0844 139.445C15.1804 139.445 13.5598 140.113 12.2224 141.451C10.8851 142.788 10.2164 144.601 10.2164 146.891C10.2164 149.157 10.8851 151.016 12.2224 152.467C13.5824 153.895 15.2031 154.609 17.0844 154.609C18.9884 154.609 20.6091 153.917 21.9464 152.535ZM16.7444 156.649C14.1604 156.649 12.0184 155.731 10.3184 153.895C8.61845 152.059 7.76845 149.724 7.76845 146.891C7.76845 144.035 8.60711 141.745 10.2844 140.023C11.9844 138.277 14.1378 137.405 16.7444 137.405C18.4218 137.405 19.8951 137.813 21.1644 138.629C22.4338 139.445 23.3744 140.499 23.9864 141.791V131.149H26.3664V156.309H23.9864V152.229C23.3744 153.521 22.4338 154.586 21.1644 155.425C19.8951 156.241 18.4218 156.649 16.7444 156.649ZM55.5082 152.535C56.8682 151.129 57.5482 149.293 57.5482 147.027C57.5482 144.76 56.8682 142.935 55.5082 141.553C54.1708 140.147 52.5502 139.445 50.6462 139.445C48.7422 139.445 47.1215 140.113 45.7842 141.451C44.4468 142.788 43.7782 144.601 43.7782 146.891C43.7782 149.157 44.4468 151.016 45.7842 152.467C47.1442 153.895 48.7648 154.609 50.6462 154.609C52.5502 154.609 54.1708 153.917 55.5082 152.535ZM50.3062 156.649C47.7222 156.649 45.5802 155.731 43.8802 153.895C42.1802 152.059 41.3302 149.724 41.3302 146.891C41.3302 144.035 42.1688 141.745 43.8462 140.023C45.5462 138.277 47.6995 137.405 50.3062 137.405C51.9835 137.405 53.4568 137.813 54.7262 138.629C55.9955 139.445 56.9362 140.499 57.5482 141.791V137.745H59.9282V156.309H57.5482V152.229C56.9362 153.521 55.9955 154.586 54.7262 155.425C53.4568 156.241 51.9835 156.649 50.3062 156.649ZM75.5719 142.879C75.5719 141.337 76.2066 140.045 77.4759 139.003C78.7452 137.937 80.3659 137.405 82.3379 137.405C84.3099 137.405 85.8399 137.926 86.9279 138.969C88.0386 139.989 88.6506 141.405 88.7639 143.219H86.3159C86.2706 142.085 85.8852 141.156 85.1599 140.431C84.4346 139.683 83.4259 139.309 82.1339 139.309C80.8419 139.309 79.8219 139.626 79.0739 140.261C78.3486 140.895 77.9859 141.666 77.9859 142.573C77.9859 143.457 78.2579 144.159 78.8019 144.681C79.3459 145.202 80.0259 145.553 80.8419 145.735C81.6806 145.916 82.5759 146.131 83.5279 146.381C84.5026 146.63 85.3979 146.902 86.2139 147.197C87.0526 147.469 87.7439 147.979 88.2879 148.727C88.8319 149.452 89.1039 150.393 89.1039 151.549C89.1039 153.045 88.4806 154.269 87.2339 155.221C85.9872 156.173 84.3439 156.649 82.3039 156.649C80.2866 156.649 78.6886 156.127 77.5099 155.085C76.3312 154.042 75.6852 152.625 75.5719 150.835H78.0199C78.0652 151.991 78.4732 152.931 79.2439 153.657C80.0146 154.382 81.0686 154.745 82.4059 154.745C83.7659 154.745 84.8199 154.461 85.5679 153.895C86.3159 153.305 86.6899 152.557 86.6899 151.651C86.6899 150.744 86.4179 150.03 85.8739 149.509C85.3299 148.987 84.6386 148.636 83.7999 148.455C82.9839 148.251 82.0886 148.024 81.1139 147.775C80.1619 147.525 79.2666 147.265 78.4279 146.993C77.6119 146.721 76.9319 146.233 76.3879 145.531C75.8439 144.828 75.5719 143.944 75.5719 142.879ZM107.11 131.149V140.771C108.356 138.527 110.408 137.405 113.264 137.405C115.326 137.405 117.049 138.085 118.432 139.445C119.814 140.782 120.506 142.72 120.506 145.259V156.309H118.16V145.701C118.16 143.661 117.661 142.108 116.664 141.043C115.689 139.977 114.34 139.445 112.618 139.445C110.918 139.445 109.569 139.977 108.572 141.043C107.597 142.108 107.11 143.661 107.11 145.701V156.309H104.73V131.149H107.11ZM145.746 154.609C147.65 154.609 149.271 153.895 150.608 152.467C151.968 151.016 152.648 149.157 152.648 146.891C152.648 144.601 151.98 142.788 150.642 141.451C149.305 140.113 147.673 139.445 145.746 139.445C143.842 139.445 142.222 140.147 140.884 141.553C139.547 142.935 138.878 144.76 138.878 147.027C138.878 149.293 139.547 151.129 140.884 152.535C142.222 153.917 143.842 154.609 145.746 154.609ZM146.12 137.405C148.727 137.405 150.869 138.277 152.546 140.023C154.246 141.745 155.096 144.035 155.096 146.891C155.096 149.724 154.246 152.059 152.546 153.895C150.846 155.731 148.704 156.649 146.12 156.649C144.443 156.649 142.97 156.241 141.7 155.425C140.431 154.586 139.49 153.521 138.878 152.229V156.309H136.498V131.149H138.878V141.791C139.49 140.499 140.431 139.445 141.7 138.629C142.97 137.813 144.443 137.405 146.12 137.405ZM177.846 154.745C179.773 154.745 181.439 154.053 182.844 152.671C184.249 151.288 184.952 149.407 184.952 147.027C184.952 144.624 184.283 142.743 182.946 141.383C181.609 140 179.977 139.309 178.05 139.309C176.123 139.309 174.514 139.989 173.222 141.349C171.93 142.709 171.284 144.601 171.284 147.027C171.284 149.452 171.896 151.345 173.12 152.705C174.344 154.065 175.919 154.745 177.846 154.745ZM177.846 156.649C175.194 156.649 173.029 155.765 171.352 153.997C169.697 152.229 168.87 149.917 168.87 147.061C168.87 144.182 169.754 141.859 171.522 140.091C173.29 138.3 175.5 137.405 178.152 137.405C180.804 137.405 183.014 138.3 184.782 140.091C186.55 141.859 187.434 144.171 187.434 147.027C187.434 149.86 186.505 152.172 184.646 153.963C182.787 155.753 180.521 156.649 177.846 156.649ZM215.381 152.535C216.741 151.129 217.421 149.293 217.421 147.027C217.421 144.76 216.741 142.935 215.381 141.553C214.044 140.147 212.423 139.445 210.519 139.445C208.615 139.445 206.995 140.113 205.657 141.451C204.32 142.788 203.651 144.601 203.651 146.891C203.651 149.157 204.32 151.016 205.657 152.467C207.017 153.895 208.638 154.609 210.519 154.609C212.423 154.609 214.044 153.917 215.381 152.535ZM210.179 156.649C207.595 156.649 205.453 155.731 203.753 153.895C202.053 152.059 201.203 149.724 201.203 146.891C201.203 144.035 202.042 141.745 203.719 140.023C205.419 138.277 207.573 137.405 210.179 137.405C211.857 137.405 213.33 137.813 214.599 138.629C215.869 139.445 216.809 140.499 217.421 141.791V137.745H219.801V156.309H217.421V152.229C216.809 153.521 215.869 154.586 214.599 155.425C213.33 156.241 211.857 156.649 210.179 156.649ZM238.335 137.745V140.805C239.355 138.538 241.27 137.405 244.081 137.405V139.887H243.401C241.769 139.887 240.511 140.329 239.627 141.213C238.766 142.097 238.335 143.615 238.335 145.769V156.309H235.955V137.745H238.335ZM271.979 152.535C273.339 151.129 274.019 149.293 274.019 147.027C274.019 144.76 273.339 142.935 271.979 141.553C270.642 140.147 269.021 139.445 267.117 139.445C265.213 139.445 263.593 140.113 262.255 141.451C260.918 142.788 260.249 144.601 260.249 146.891C260.249 149.157 260.918 151.016 262.255 152.467C263.615 153.895 265.236 154.609 267.117 154.609C269.021 154.609 270.642 153.917 271.979 152.535ZM266.777 156.649C264.193 156.649 262.051 155.731 260.351 153.895C258.651 152.059 257.801 149.724 257.801 146.891C257.801 144.035 258.64 141.745 260.317 140.023C262.017 138.277 264.171 137.405 266.777 137.405C268.455 137.405 269.928 137.813 271.197 138.629C272.467 139.445 273.407 140.499 274.019 141.791V131.149H276.399V156.309H274.019V152.229C273.407 153.521 272.467 154.586 271.197 155.425C269.928 156.241 268.455 156.649 266.777 156.649Z" fill="#B3BAC7"/>
<path d="M120.528 57V5.592H137.16C142.44 5.592 146.328 7.08 148.824 10.056C151.32 13.032 152.568 16.944 152.568 21.792V43.896H146.736V21.864C146.736 18.12 145.824 15.312 144 13.44C142.224 11.52 139.704 10.56 136.44 10.56H126.36V57H120.528ZM133.632 18.696H139.464V52.032H149.256C152.904 52.032 155.64 51.072 157.464 49.152C159.336 47.184 160.272 44.352 160.272 40.656V5.592H166.104V40.656C166.104 43.776 165.552 46.584 164.448 49.08C163.344 51.528 161.592 53.472 159.192 54.912C156.792 56.304 153.648 57 149.76 57H133.632V18.696Z" fill="#B0D3B4"/>
</svg>
