<svg width="216" height="159" viewBox="0 0 216 159" fill="none" xmlns="http://www.w3.org/2000/svg">
<path d="M16.716 119.493L7.752 94.2213H14.304L20.568 113.481L26.832 94.2213H33.384L24.42 119.493H16.716ZM43.5211 119.493V94.2213H49.6771V119.493H43.5211ZM62.2875 94.2213H68.4435V114.813H76.1115V119.493H62.2875V94.2213ZM115.334 94.2213V119.493H109.178V105.237L103.31 119.493H98.7381L92.8701 105.237V119.493H86.7141V94.2213H93.7701L101.042 111.645L108.278 94.2213H115.334ZM144.001 119.493L142.597 115.245H133.525L132.121 119.493H125.569L134.353 94.1493H141.841L150.589 119.493H144.001ZM135.073 110.565H141.049L138.061 101.565L135.073 110.565ZM177.765 94.2213V98.9013L167.001 114.813H177.765V119.493H159.909V114.813L170.673 98.9013H159.909V94.2213H177.765ZM206.411 94.2213V98.9013L195.647 114.813H206.411V119.493H188.555V114.813L199.319 98.9013H188.555V94.2213H206.411Z" fill="#21242C"/>
<path d="M25.968 151.145C26.928 150.153 27.408 148.857 27.408 147.257C27.408 145.657 26.928 144.369 25.968 143.393C25.024 142.401 23.88 141.905 22.536 141.905C21.192 141.905 20.048 142.377 19.104 143.321C18.16 144.265 17.688 145.545 17.688 147.161C17.688 148.761 18.16 150.073 19.104 151.097C20.064 152.105 21.208 152.609 22.536 152.609C23.88 152.609 25.024 152.121 25.968 151.145ZM22.296 154.049C20.472 154.049 18.96 153.401 17.76 152.105C16.56 150.809 15.96 149.161 15.96 147.161C15.96 145.145 16.552 143.529 17.736 142.313C18.936 141.081 20.456 140.465 22.296 140.465C23.48 140.465 24.52 140.753 25.416 141.329C26.312 141.905 26.976 142.649 27.408 143.561V136.049H29.088V153.809H27.408V150.929C26.976 151.841 26.312 152.593 25.416 153.185C24.52 153.761 23.48 154.049 22.296 154.049ZM48.8186 151.145C49.7786 150.153 50.2586 148.857 50.2586 147.257C50.2586 145.657 49.7786 144.369 48.8186 143.393C47.8746 142.401 46.7306 141.905 45.3866 141.905C44.0426 141.905 42.8986 142.377 41.9546 143.321C41.0106 144.265 40.5386 145.545 40.5386 147.161C40.5386 148.761 41.0106 150.073 41.9546 151.097C42.9146 152.105 44.0586 152.609 45.3866 152.609C46.7306 152.609 47.8746 152.121 48.8186 151.145ZM45.1466 154.049C43.3226 154.049 41.8106 153.401 40.6106 152.105C39.4106 150.809 38.8106 149.161 38.8106 147.161C38.8106 145.145 39.4026 143.529 40.5866 142.313C41.7866 141.081 43.3066 140.465 45.1466 140.465C46.3306 140.465 47.3706 140.753 48.2666 141.329C49.1626 141.905 49.8266 142.649 50.2586 143.561V140.705H51.9386V153.809H50.2586V150.929C49.8266 151.841 49.1626 152.593 48.2666 153.185C47.3706 153.761 46.3306 154.049 45.1466 154.049ZM62.1412 144.329C62.1412 143.241 62.5892 142.329 63.4852 141.593C64.3812 140.841 65.5252 140.465 66.9172 140.465C68.3092 140.465 69.3892 140.833 70.1572 141.569C70.9412 142.289 71.3732 143.289 71.4532 144.569H69.7252C69.6932 143.769 69.4212 143.113 68.9092 142.601C68.3972 142.073 67.6852 141.809 66.7732 141.809C65.8612 141.809 65.1412 142.033 64.6132 142.481C64.1012 142.929 63.8452 143.473 63.8452 144.113C63.8452 144.737 64.0372 145.233 64.4212 145.601C64.8052 145.969 65.2852 146.217 65.8612 146.345C66.4532 146.473 67.0852 146.625 67.7572 146.801C68.4452 146.977 69.0772 147.169 69.6532 147.377C70.2452 147.569 70.7332 147.929 71.1172 148.457C71.5012 148.969 71.6932 149.633 71.6932 150.449C71.6932 151.505 71.2532 152.369 70.3732 153.041C69.4932 153.713 68.3332 154.049 66.8932 154.049C65.4692 154.049 64.3412 153.681 63.5092 152.945C62.6772 152.209 62.2212 151.209 62.1412 149.945H63.8692C63.9012 150.761 64.1892 151.425 64.7332 151.937C65.2772 152.449 66.0212 152.705 66.9652 152.705C67.9252 152.705 68.6692 152.505 69.1972 152.105C69.7252 151.689 69.9892 151.161 69.9892 150.521C69.9892 149.881 69.7972 149.377 69.4132 149.009C69.0292 148.641 68.5412 148.393 67.9492 148.265C67.3732 148.121 66.7412 147.961 66.0532 147.785C65.3812 147.609 64.7492 147.425 64.1572 147.233C63.5812 147.041 63.1012 146.697 62.7172 146.201C62.3332 145.705 62.1412 145.081 62.1412 144.329ZM83.5631 136.049V142.841C84.4431 141.257 85.8911 140.465 87.9071 140.465C89.3631 140.465 90.5791 140.945 91.5551 141.905C92.5311 142.849 93.0191 144.217 93.0191 146.009V153.809H91.3631V146.321C91.3631 144.881 91.0111 143.785 90.3071 143.033C89.6191 142.281 88.6671 141.905 87.4511 141.905C86.2511 141.905 85.2991 142.281 84.5951 143.033C83.9071 143.785 83.5631 144.881 83.5631 146.321V153.809H81.8831V136.049H83.5631ZM109.996 152.609C111.34 152.609 112.484 152.105 113.428 151.097C114.388 150.073 114.868 148.761 114.868 147.161C114.868 145.545 114.396 144.265 113.452 143.321C112.508 142.377 111.356 141.905 109.996 141.905C108.652 141.905 107.508 142.401 106.564 143.393C105.62 144.369 105.148 145.657 105.148 147.257C105.148 148.857 105.62 150.153 106.564 151.145C107.508 152.121 108.652 152.609 109.996 152.609ZM110.26 140.465C112.1 140.465 113.612 141.081 114.796 142.313C115.996 143.529 116.596 145.145 116.596 147.161C116.596 149.161 115.996 150.809 114.796 152.105C113.596 153.401 112.084 154.049 110.26 154.049C109.076 154.049 108.036 153.761 107.14 153.185C106.244 152.593 105.58 151.841 105.148 150.929V153.809H103.468V136.049H105.148V143.561C105.58 142.649 106.244 141.905 107.14 141.329C108.036 140.753 109.076 140.465 110.26 140.465ZM131.815 152.705C133.175 152.705 134.351 152.217 135.343 151.241C136.335 150.265 136.831 148.937 136.831 147.257C136.831 145.561 136.359 144.233 135.415 143.273C134.471 142.297 133.319 141.809 131.959 141.809C130.599 141.809 129.463 142.289 128.551 143.249C127.639 144.209 127.183 145.545 127.183 147.257C127.183 148.969 127.615 150.305 128.479 151.265C129.343 152.225 130.455 152.705 131.815 152.705ZM131.815 154.049C129.943 154.049 128.415 153.425 127.231 152.177C126.063 150.929 125.479 149.297 125.479 147.281C125.479 145.249 126.103 143.609 127.351 142.361C128.599 141.097 130.159 140.465 132.031 140.465C133.903 140.465 135.463 141.097 136.711 142.361C137.959 143.609 138.583 145.241 138.583 147.257C138.583 149.257 137.927 150.889 136.615 152.153C135.303 153.417 133.703 154.049 131.815 154.049ZM157.47 151.145C158.43 150.153 158.91 148.857 158.91 147.257C158.91 145.657 158.43 144.369 157.47 143.393C156.526 142.401 155.382 141.905 154.038 141.905C152.694 141.905 151.55 142.377 150.606 143.321C149.662 144.265 149.19 145.545 149.19 147.161C149.19 148.761 149.662 150.073 150.606 151.097C151.566 152.105 152.71 152.609 154.038 152.609C155.382 152.609 156.526 152.121 157.47 151.145ZM153.798 154.049C151.974 154.049 150.462 153.401 149.262 152.105C148.062 150.809 147.462 149.161 147.462 147.161C147.462 145.145 148.054 143.529 149.238 142.313C150.438 141.081 151.958 140.465 153.798 140.465C154.982 140.465 156.022 140.753 156.918 141.329C157.814 141.905 158.478 142.649 158.91 143.561V140.705H160.59V153.809H158.91V150.929C158.478 151.841 157.814 152.593 156.918 153.185C156.022 153.761 154.982 154.049 153.798 154.049ZM172.833 140.705V142.865C173.553 141.265 174.905 140.465 176.889 140.465V142.217H176.409C175.257 142.217 174.369 142.529 173.745 143.153C173.137 143.777 172.833 144.849 172.833 146.369V153.809H171.153V140.705H172.833ZM195.742 151.145C196.702 150.153 197.182 148.857 197.182 147.257C197.182 145.657 196.702 144.369 195.742 143.393C194.798 142.401 193.654 141.905 192.31 141.905C190.966 141.905 189.822 142.377 188.878 143.321C187.934 144.265 187.462 145.545 187.462 147.161C187.462 148.761 187.934 150.073 188.878 151.097C189.838 152.105 190.982 152.609 192.31 152.609C193.654 152.609 194.798 152.121 195.742 151.145ZM192.07 154.049C190.246 154.049 188.734 153.401 187.534 152.105C186.334 150.809 185.734 149.161 185.734 147.161C185.734 145.145 186.326 143.529 187.51 142.313C188.71 141.081 190.23 140.465 192.07 140.465C193.254 140.465 194.294 140.753 195.19 141.329C196.086 141.905 196.75 142.649 197.182 143.561V136.049H198.862V153.809H197.182V150.929C196.75 151.841 196.086 152.593 195.19 153.185C194.294 153.761 193.254 154.049 192.07 154.049Z" fill="#B3BAC7"/>
<path d="M77.66 75V6.456H99.836C106.876 6.456 112.06 8.44 115.388 12.408C118.716 16.376 120.38 21.592 120.38 28.056V57.528H112.604V28.152C112.604 23.16 111.388 19.416 108.956 16.92C106.588 14.36 103.228 13.08 98.876 13.08H85.436V75H77.66ZM95.132 23.928H102.908V68.376H115.964C120.828 68.376 124.476 67.096 126.908 64.536C129.404 61.912 130.652 58.136 130.652 53.208V6.456H138.428V53.208C138.428 57.368 137.692 61.112 136.22 64.44C134.748 67.704 132.412 70.296 129.212 72.216C126.012 74.072 121.82 75 116.636 75H95.132V23.928Z" fill="#B0D3B4"/>
</svg>
