<svg xmlns="http://www.w3.org/2000/svg" viewBox="0 0 603.24 432.65"><defs><style>.cls-1{fill:#2b303b;}.cls-11,.cls-18,.cls-2,.cls-28,.cls-29,.cls-3,.cls-30,.cls-31,.cls-4,.cls-5,.cls-6{fill:none;stroke-miterlimit:10;}.cls-2,.cls-3{stroke:#a2aabd;}.cls-11,.cls-18,.cls-2,.cls-3{stroke-width:2px;}.cls-3{stroke-dasharray:12.47 12.47;}.cls-4,.cls-5,.cls-6{stroke:#585d69;stroke-width:3px;}.cls-18,.cls-4,.cls-5,.cls-6{stroke-linecap:round;}.cls-5{stroke-dasharray:0 12.15 0 0;}.cls-6{stroke-dasharray:12.15 0 0 12.15 0 0;}.cls-7{fill:#363e49;}.cls-8{fill:#505b6d;}.cls-9{fill:#343a47;}.cls-10{fill:#585d68;}.cls-11{stroke:#575d66;}.cls-12{fill:#f1ecec;}.cls-13{fill:#e0d2d3;}.cls-14{fill:#a2aabd;}.cls-15{fill:#b7a7a9;opacity:0.31;}.cls-16{fill:#b3bac7;}.cls-17{fill:#363e4a;}.cls-18{stroke:#f1ecec;}.cls-19{fill:#e8e3de;}.cls-20{fill:#fbfdff;}.cls-21{fill:#2f475e;}.cls-22{fill:#f386a2;}.cls-23{fill:#575d66;}.cls-24{font-size:38.44px;fill:#231f20;font-family:Roboto-Regular, Roboto;letter-spacing:-0.02em;}.cls-25{letter-spacing:0em;}.cls-26{letter-spacing:-0.01em;}.cls-27{fill:#fff;}.cls-28{stroke:#b3bac7;stroke-width:0.5px;}.cls-29,.cls-31{stroke:#585d68;}.cls-29,.cls-30{stroke-width:4px;}.cls-30{stroke:#363e4a;}.cls-31{stroke-width:5px;}</style></defs><g id="Layer_2" data-name="Layer 2"><g id="Layer_2-2" data-name="Layer 2"><path class="cls-1" d="M59.89,369.8C53.25,322.38,6.61,340,1.09,318.4c-11.71-45.8,75-80.4,68.51-137.8-4.47-39.55-47.95-43.64-48.55-76C20,47.74,152.55-27.31,218.49,10c41,23.22,70.1,45.31,110.05,62.67C384.12,96.82,413.81,12.49,462.86,36c41.92,20.12-8.61,72,44.2,110.59,44.19,32.29,55,59.76,52.11,112.7-3.26,59.17,84.35,55.5,21,134.64-56,70-159.46.31-273.43,17C180.22,429.53,73.06,463.84,59.89,369.8Z"/><g id="Stroke-dashed2"><path class="cls-2" d="M134,154.62q.89-2.9,1.88-5.7"/><path class="cls-3" d="M140.55,137.38c25.36-54.93,82.25-79.29,122.72-64.06,26.76,10.08,46.25,37.43,53.33,70.1"/><path class="cls-2" d="M317.78,149.54q.48,3,.84,6"/></g><g id="Stroke-dashed1"><path class="cls-4" d="M471.28,222.81q2.64,1.44,5.18,3"/><path class="cls-5" d="M476.46,225.84a98.31,98.31,0,0,1,9.11,6.43"/><path class="cls-6" d="M486.35,232.89c25.24,20.41,40,52.34,38.12,82-3.64,56.4-65.74,75.82-71.6,77.66C382,414.75,318.69,333.1,302.69,310.39"/><path class="cls-4" d="M302.69,310.39c-1.64-2.33-2.78-4-3.38-4.95"/></g><path id="leave7" class="cls-7" d="M154.3,213.24C108.4,258,139,268,163.16,228c15.17,23.39,10.4,64.47-23.53,64.14,11,11.13,22.31,21.83,29.19,36.31-2.11.6-4.44,3.49-6.06,1.06-7.8-12.09-15.1-24.65-25.24-35-11.68,46.8-63.4,33.43-84.58.94,6.27-1.56,51.21-44.57,26.52-37.49-36.2,32.33-30.08,44.68-60.27-3,16.56-.83,29.14-8.13,37.49-22.75-13.25,4.24-23.7,16.42-38.91,13.53-7.51-.65-8.25-25.64-11.67-33.06,10.5,1.74,20.29,1.65,29.49-2.14C1.26,202.59,1.05,179.5,7.31,150c13.48,8.45,33,3.93,45.47,11.85,3.81,10.47,5.13,21.54,7.53,32.36C74.05,219.39,72.74,175.38,71,166.65c13.63.21,24.64,9.65,35.25,17.12-21.19,42.1,3.31,55.69,9.83,4.5A146.48,146.48,0,0,1,154.3,213.24ZM10.94,156.84l-.28.18c29.68,49,76.14,83.79,116.58,123.24C88.32,239.32,42.13,204.7,10.94,156.84Z"/><path id="leave6" class="cls-8" d="M132.31,164.26l13.76,14.49-1.72,2.17c-5.45-4.57-9.48-10.2-13.48-16.07-7.27,16-22.75,13.58-30.68-.42,6.91.34,11.08-1.71,13-6.35-17.14.19-17.72,0-25.68-15,17.47,1.6,12.9-10-2.63-7.32q-2-6.21-4-12.5c2.39,0,10.68-.77,7.3-4.46-2.58-2.11-7.54-.09-7.69-4.29a71.86,71.86,0,0,1-1-23.4A56.39,56.39,0,0,1,103,100c1.35,3-1.12,7-1.29,10.26,3.56-1.27,5.75-4.15,7.18-7.91,3.94,2.7,11.79,6.38,13.49,10.49-4.15,14.87-.65,21.31,6.6,3.8,4.07,4.85,13.75,12.11,11.76,18.95-1.23,3.21-4,6.1-3.85,9.64,4,0,6.75-4.3,9.22-7.09C155.25,150.17,146.37,163.55,132.31,164.26ZM82.94,96.83C85,102,123.55,155,127.13,157.67,112.61,137.13,96.8,117.9,82.94,96.83Z"/><path id="leave5" class="cls-9" d="M543.47,125.38q3,13.05,5.93,26c-24.57,1.4-10.92,27.55,6.36,14.16,1.55,11.67,5.31,31.11-12.17,30.22-8,.26-15.27-7.68-23.09-3.31-12.36,13,21.78,22.11,33.31,11.12-2,32.13-20.95,21.77-42.2,14.29-4.73-.4-.31,5.08,1.19,6.49,5.92,5.75,13,9.34,20.61,12.37-3.83,3-12.84,10.78-17.47,8.26-6.67-3.32-19.08-17.12-26.14-13.6-3.25,6.84,9.79,17,15.55,20-4.8,2.91-9.25,8.55-14.87,8.85a40.07,40.07,0,0,1-22.31-24.46,90.81,90.81,0,0,1-17.09,24.06l-2.31-2.36A134.21,134.21,0,0,0,466.86,235c-12.64-.59-30.3-3.71-29.41-19.7,21.41,4.79,16.24-3.3,1-9.51-4.38-1.83,2.08-15.7,2.53-20.05,5.06,4.55,16.74,12.22,22.65,6.44,2-5.84-14.7-15-18.83-19.48A112.93,112.93,0,0,1,463,149.38c3.7,7.11,5.84,16.38,14.23,19.29,2.95,1,5.08-.6,5-3.77-5.16-17.17-23.68-20.25,7.38-35.1-1.12,9.72,6.25,17.54,12.82,23.68,2,1.86,4.32,1.31,5.49-1.16,2.39-5.69-2.11-11-3.48-16.35C502.53,116.1,532.36,128.73,543.47,125.38ZM538.38,130l-.5-.29c-25.87,30.93-46.26,65.55-66.93,100C493.43,196.43,513.13,161.22,538.38,130ZM512,175.49c-4.9,8.51,10.89,5.92,12.13.64,1-3-1.54-6.43-4.65-6C515.85,170.69,513.61,173.24,512,175.49Z"/><path id="leave4" class="cls-7" d="M191.3,145.19c11.9-9.2,26.16-4.65,39.57-6.61-9.66,11.9-24.43,3.36-36.8,7.76-3.63,1.41-3.55,1.43-4.47,5.8a156.28,156.28,0,0,0-3.31,22.62l-2.75-.15c-.43-9.44,4.06-19.26,4-28.09-11.69-5.09-31.94-7.25-30.3-24.45,8.21,10.8,23.53,11.76,31.3,23.24,14.12-29.89-26.82-5-28.11-40.32,7.57,12.69,24.08,13.92,32.64,25.64.68-2.68,6-13.45,3.55-14.66-12.36-4.67-30-4.58-30.11-22.28,7.89,10.7,24.56,9.58,31.59,21.64.65-3.58,4-8.47,2.3-11.69-10.1-8.27-31-7-30.79-24.32,8.83,13.79,22.23,3.9,32.09,23.5.3-3.54,3.33-8.19,1.42-11.12-11.36-7.18-26.32-9.43-33.5-21.93,12.52,5.66,28.84,6.34,34.8,20.72,0-3.28,2.59-7.45-.7-9.79-4.75-4.22-9.92-7.9-14.61-12.17C183.62,63,184,55,180.49,48.43a105.09,105.09,0,0,1,25,32.38l.36-.16c3.94-15.85-15.47-17.09-13.95-33.5.13-4.21,2-8.56.12-12.63l.33-.19c3,3.38,4.26,7.74,5.09,12.07,1.35,8.27,6.09,15.42,9.09,23.06-2.77-22.92.53-32.74,15-50.56-2,11.77-4.73,23.18-9.48,34.1-2.92,5.74-5.91,10.55-4.4,17.31C212,63,216.23,55.84,223,50.43c3.72-3,7.85-5.66,10.13-10.07-2.11,28.88-28,18.91-25.46,39.94,9.56-10.2,22.1-16,35.3-20-4.72,14.67-21.28,16.61-33.84,21-3.56,1.42-1.94,6.67-3.11,9.85,11.78-8.6,27.6-4.84,39-14-4.08,17.42-24.74,14.71-38.45,15.36-2.34,2.43-1.77,7.08-3,10.55,12-9.57,28.49-2.28,40.79-9.93-9.32,12.42-27.15,9-40.73,12.07-2.27,2.31-2.06,6.9-3.34,9.93,13.2-6.88,29.4,2.69,41.33-7.54-8.44,17.55-26,11.06-40.8,9.6-3.13,1.09-3.43,9.94-5.19,13.25,13.49-6.68,28.57,1.58,41.95-4.53-10.67,20.58-26.9,1.87-42,6.88C193,136,192.91,141.27,191.3,145.19Z"/><path id="leave3" class="cls-10" d="M486.5,323c-2.65-14.44,4.29-31-6-43.38-7.45,13.45-1.67,29.36,3.66,42.52,1.25,3.07,1.45,2.14-1,4.39-8.62,7.81-16.31,17-20.61,27.89l2.43.91c3.77-6.63,6.82-16.1,13.57-19.62,15.59,6.09,35.22,10.71,50,.19-15.52-8.53-32.36.18-48.69-2.45l-.19-.48c4.26-3.61,8.19-8.78,13.33-10.87,15.24,2.52,33.51,5,46.14-6-15.47-6.63-29.63,4-45.06,4,4.93-4.18,8.77-10.26,14.49-13.09,14.05-.66,29.43-3,38.19-15.32-13.92-4-25.81,6.53-37.42,12.5,7.13-15.16,24.14-24.22,22.44-43l-.32-.2c-18,11.28-14.48,35.52-29.36,49.21l-.46-.16c.07-15.26,10.88-31,3.19-45.86-10.11,13.47-8.58,31.72-5.44,47.35-2.45,4.69-8.56,7.55-12.32,11.51Z"/><path id="leave2" class="cls-8" d="M391.88,193c-9.6,11.4-19,23-28.73,34.24l-1.24-1c11-14.12,21.77-28.16,33.54-41.56,1.2-7.28-12.77-22.44-16.19-29.87,8.53-1.42,29.68,12.63,20,24.46l1.16.77,12-18.1-.08,0c3,.1,16-15.41,15.16-18.16h0c4.19-5,8.46-9.92,12.41-15.08-4-10.15-14-16.91-16.47-28.48,12.34,1.49,26.9,15.08,17.62,26.3,4.13-5.74,10.09-10.07,10.91-17.59h-.05c4.64-1.41,8.26-14.27,11.6-18.77l-.18.09c5-3.41,8.67-14.62,3.79-19.67-4.34-5-3.22-11.45-2.33-17.45l1.85-.47L472.76,71l16.18-10.68c-4.68,23.43-18.36,1.53-21.76,30.7l-.09-.17-6.68,9.7a212.28,212.28,0,0,1,25.89-1.37c-11.86,23.44-29.56,1.68-35.29,17.1l28.93.82c-16.4,24.59-34.73,1.7-40.36,15.49a101.6,101.6,0,0,1,30.22,6.08l-.05,2.08c-9.9,4.55-22.08,3.36-32.83,4.15-6.89-.56-9.25,2.92-12.9,8.06,13.94-3.05,22.56,5.68,32.22,11.95l-.27,1.36a112.18,112.18,0,0,1-28.63-3.73c-9.44-2.91-14.74,1.88-18.48,9.33,14.75-3.57,19.26,9.22,27.29,16.21l-32.94-9.79-11.56,14.84Zm20.47-31c16.68-12.93-4.61-29.84-18.1-33.75L396,128a143,143,0,0,0,16.47,33.91Zm15.13-18.15c13.3-20.56-10.41-26.86-24.86-31,8.61,10.13,16.62,20.6,24.88,31ZM451.9,109c5.45-8.91,5.21-11.91-1.47-19.58-3.41-3.88-6.28-8.26-10.71-11.07C436,91.19,445.43,99.33,452,109Zm-65.67,73.94c-3.38-5-8.36-8.14-16-10,3.42,10,6.89,18.38,12.34,25.87C387.9,194.84,390.56,188.24,386.23,182.91ZM391.88,193l-3,6,23,11.79c1.46-11.11-9.47-22.82-20.2-17.65Zm71.44-102.7c5.74-10.2-4.21-17.41-8.39-26.49-3.7,10.33-.19,20.61,8.57,26.4Zm3.78.57c9.66,4.61,19.67-4.45,20.58-14.21C479.9,81.81,469,80.71,467.18,91,467.18,91,467.09,90.85,467.1,90.86Zm13.35-43.39c-5.26,2.38-8.13,11-6.66,19.44C479.18,61.5,482.08,55.31,480.45,47.47Z"/><path id="leave1" class="cls-10" d="M296.91,142.79c5.08-16.73-6.78-40.93,10.32-52.3q-3.56,23.15-7.11,46.25l1.78.67c9.25-15,2.86-36.12,18.44-48.15-1.85,14.88-6.87,27.85-10.48,42.55,11.56-12.25,11.24-33.2,27.3-40.94l-15.71,31.21c7.9-5.67,20.09-19.45,33.27-20.12l1,1.83-27.53,17,.69,1.4c12.47-6.11,24.56-13.57,39.15-12.32l.61,2-23.43,6.75,0,.29,25.78-3.46.4,3.23-43.16,5.48.15,1.16c10.63-1.31,20,.34,28.35,7.65-16.75-.25-33.64-8.58-50.36,3.27,10.23-1.21,19.7-3.58,27,5.73-25.48-6.42-44.07-.14-51.72,26-6.26,18.06-4,37.08.72,55.41.07.31-.13.68-.6,2.8-7.12-21.1-8.27-42.19-.79-63.17,1.1-3,.58-4.57-1.86-6.58-11.53-8.57-21.28-18.39-26.95-31.81l1.45-.9L285,155.26c-9.18-12-17.32-24.63-21.83-39.27,11,9.83,16.81,23.2,24.11,35.54l1.59-.64c-4.29-15.6-17.23-29.09-14.17-46.1,7.74,13.18,11,28,16.67,41.93l1.78-.41c-2.1-15.29-11.5-30.23-7-46,6.66,13.26,7.6,27.69,8.88,42Z"/><path class="cls-11" d="M224.16,137.35,286.32,75.2a17.06,17.06,0,0,1,24.14,0l61.37,61.37"/><polygon class="cls-10" points="114.02 356.33 104.05 356.33 109.86 169.47 114.03 167.03 114.02 356.33"/><polygon class="cls-12" points="489.24 364.9 116.89 360.74 114.03 167.03 489.24 167.03 489.24 364.9"/><path class="cls-13" d="M420.24,364.12l-309.67-3.47L114,151.54s3.62,176.09,20.83,187.06c2.16,1.38,2.86,2.08,7.33,2.21h0c24.15,2.1,56.2,5.46,93.13,8.8h.06c18.67,1.63,38.44,3.27,57.81,4.84l1.56.1.6.05h0C360.23,359.81,420.24,364.12,420.24,364.12Z"/><path class="cls-14" d="M420.24,364.12l-309.67-3.47L114,167c0,.15,5.21,161.63,20.81,171.57,2.16,1.38,2.86,2.08,7.33,2.21h0c24.15,2.1,56.2,5.46,93.13,8.8h.06c18.67,1.63,58.9,4.9,59.37,4.94l.61.05C353,359.23,420.24,364.12,420.24,364.12Z"/><path class="cls-15" d="M114.11,155.9c.7,27.21,5.13,172.76,20.73,182.7,2.16,1.38,2.86,2.08,7.33,2.21h0c24.15,2.1,56.2,5.46,93.13,8.8h.06c18.67,1.63,38.61,3.14,58,4.82l1.4.12c.11,0,.63.06.65.06l-174-7.59Z"/><path class="cls-16" d="M295.16,354.59c-.12,0-41.1-3.34-59.77-5h-.06c-36.87-3.2-60.6-5.61-93.13-8.8h0c.49-.1,14.74-3.17,10.06-20.71C172.18,338.27,289.69,353.86,295.16,354.59Z"/><polygon class="cls-7" points="109.86 169.47 114.44 167.16 114.03 134.6 110.3 137.39 109.86 169.47"/><circle class="cls-17" cx="298.41" cy="75.84" r="8.76"/><g id="glas"><circle class="cls-7" cx="239.12" cy="273.84" r="17.3"/><path class="cls-18" d="M239.12,261.68a12.16,12.16,0,0,1,12.16,12.16"/></g><g id="glas-2" data-name="glas"><circle class="cls-7" cx="365.75" cy="273.84" r="17.3"/><path class="cls-18" d="M365.75,261.68a12.16,12.16,0,0,1,12.16,12.16"/></g><g id="rot"><path class="cls-19" d="M303.91,335.65c-14.38,0-27.18-7.8-31.13-19a21.37,21.37,0,0,1-1.28-7.3v-1.25h64.82v1.25a21.37,21.37,0,0,1-1.28,7.3C331.08,327.85,318.27,335.65,303.91,335.65Z"/><path class="cls-20" d="M334.27,309.39a20.31,20.31,0,0,1-1.19,6.88,143,143,0,0,1-59.13,0,20.31,20.31,0,0,1-1.19-6.88Z"/><path class="cls-21" d="M333.08,316.27C330.71,323,325,328.6,317.4,331.7a37.18,37.18,0,0,1-27.26.22c-7.81-3.07-13.79-8.75-16.19-15.65a143,143,0,0,0,59.13,0Z"/><path class="cls-22" d="M317.4,331.7a37.18,37.18,0,0,1-27.26.22c3.07-2.52,8.1-4.16,13.78-4.16C309.42,327.76,314.31,329.3,317.4,331.7Z"/></g><rect class="cls-23" x="114.03" y="134.6" width="375.21" height="32.43"/><text class="cls-24" transform="translate(197.41 231.89)">V<tspan class="cls-25" x="23.59" y="0">apaa päi</tspan><tspan class="cls-26" x="169.19" y="0">v</tspan><tspan class="cls-25" x="187.52" y="0">ä</tspan></text><path class="cls-27" d="M114.11,177.47s31.7-4.17,28.19,5.13c-3.85,10.19,4.1-14.51,27.35-4,5.89,2.64,16.38,12.48,11.4,4.7-2.33-3.65,20.82-14.51,35.09-5.24,13.56,8.81,30,9.12,25,1.29s32,11.44,26-2.86c30.44-1.62,33.65,15.47,31.36,5.51-2.06-8.92,19.56-13.09,28-2.65s16,5.57,25,1.68,31.1-12.33,29.45-5.51-3.59-1.62,18.47-3.24S441.22,186.7,436,179.3s3.56-8.7,11-2.86,7.79,11,19.14,4.21,15.89-6.48,18.81-3.56,4.24,1,4.24,1V167H114Z"/><path class="cls-28" d="M114.11,177.47s31.7-4.17,28.19,5.13c-3.85,10.19,4.1-14.51,27.35-4,5.89,2.64,16.38,12.48,11.4,4.7-2.33-3.65,20.82-14.51,35.09-5.24,13.56,8.81,30,9.12,25,1.29s32,11.44,26-2.86c30.44-1.62,33.65,15.47,31.36,5.51-2.06-8.92,19.56-13.09,28-2.65s16,5.57,25,1.68,31.1-12.33,29.45-5.51-3.59-1.62,18.47-3.24S441.22,186.7,436,179.3s3.56-8.7,11-2.86,7.79,11,19.14,4.21,15.89-6.48,18.81-3.56,4.24,1,4.24,1"/><circle id="Ellipse5" class="cls-29" cx="40.77" cy="72.51" r="16.37"/><circle id="Ellipse4" class="cls-30" cx="517.68" cy="99" r="8.38"/><circle id="Ellipse3" class="cls-2" cx="307.16" cy="39.32" r="12.26"/><circle id="Ellipse2" class="cls-31" cx="557.28" cy="369.65" r="8.38"/><circle id="Ellipse1" class="cls-2" cx="60.57" cy="362.99" r="6.66"/></g></g></svg>